<svg xmlns="http://www.w3.org/2000/svg" viewBox="0 0 1536 1024" width="1536" height="1024">
  <defs>
    <pattern id="gr" width="6" height="6" patternUnits="userSpaceOnUse">
      <circle cx="1" cy="1" r=".7" fill="#14110D"/>
    </pattern>
    <radialGradient id="glow" cx="50%" cy="50%" r="50%">
      <stop offset="0%" stop-color="#E8410E" stop-opacity=".55"/>
      <stop offset="100%" stop-color="#E8410E" stop-opacity="0"/>
    </radialGradient>
    <radialGradient id="lamp" cx="50%" cy="50%" r="50%">
      <stop offset="0%" stop-color="#F5D9A8" stop-opacity=".9"/>
      <stop offset="100%" stop-color="#F5D9A8" stop-opacity="0"/>
    </radialGradient>
  </defs>
  <rect width="1536" height="1024" fill="#EDE6D5"/>
  
  <rect y="660" width="1536" height="364" fill="#E2D9C4"/>
  <!-- window to production floor -->
  <rect x="120" y="140" width="640" height="380" rx="10" fill="#D8CDB4"/>
  <g stroke="#14110D" stroke-width="8" opacity=".8" fill="none">
    <rect x="120" y="140" width="640" height="380" rx="10"/>
    <path d="M440 140 V520 M120 330 H760"/>
  </g>
  <!-- machinery gears behind glass -->
  <g fill="#14110D" opacity=".75">
    <circle cx="300" cy="250" r="52"/><circle cx="300" cy="250" r="20" fill="#D8CDB4"/>
    <circle cx="380" cy="300" r="34"/><circle cx="380" cy="300" r="12" fill="#D8CDB4"/>
    <rect x="490" y="380" width="220" height="90" rx="8"/>
  </g>
  <circle cx="640" cy="230" r="26" fill="#E8410E" opacity=".85"/>
  <!-- blueprint on wall -->
  <rect x="900" y="170" width="420" height="300" rx="8" fill="#C9BFA8"/>
  <g stroke="#14110D" stroke-width="5" fill="none" opacity=".75">
    <rect x="940" y="210" width="150" height="100"/>
    <path d="M940 360 h340 M940 400 h240"/>
    <circle cx="1220" cy="260" r="48"/>
  </g>
  <path d="M1172 260 h96 M1220 212 v96" stroke="#E8410E" stroke-width="6"/>
  <!-- table with samples -->
  <path d="M300 730 L1240 730 L1360 930 L180 930 Z" fill="#14110D"/>
  <g>
    <rect x="600" y="756" width="110" height="64" rx="6" fill="#EDE6D5" opacity=".9" transform="rotate(-2 655 788)"/>
    <rect x="800" y="766" width="84" height="54" rx="27" fill="#E8410E"/>
    <rect x="960" y="760" width="120" height="20" rx="10" fill="#C9BFA8"/>
  </g>
  <!-- helmets on shelf -->
  <g fill="#E8410E">
    <path d="M1370 600 a34 30 0 0 1 68 0 z"/>
    <path d="M1370 660 a34 30 0 0 1 68 0 z" fill="#14110D"/>
  </g>
  
  <g transform="translate(430,706) scale(1.1)" fill="#14110D" opacity="1">
    <circle cx="0" cy="-46" r="11"/>
    <path d="M-14 -34 Q0 -42 14 -34 L12 8 Q0 12 -12 8 Z"/>
  </g> 
  <g transform="translate(1120,700) scale(1.05)" fill="#14110D" opacity="1">
    <circle cx="0" cy="-46" r="11"/>
    <path d="M-14 -34 Q0 -42 14 -34 L12 8 Q0 12 -12 8 Z"/>
  </g>
  <rect width="1536" height="1024" fill="url(#gr)" opacity=".05"/>
  <text x="1518" y="1008" text-anchor="end" font-family="ui-monospace,Menlo,monospace" font-size="15" letter-spacing="3" fill="#14110D" opacity=".32">PREVIZ · 佔位圖</text>
</svg>