<svg xmlns="http://www.w3.org/2000/svg" viewBox="0 0 1536 1024" width="1536" height="1024">
  <defs>
    <pattern id="gr" width="6" height="6" patternUnits="userSpaceOnUse">
      <circle cx="1" cy="1" r=".7" fill="#14110D"/>
    </pattern>
    <radialGradient id="glow" cx="50%" cy="50%" r="50%">
      <stop offset="0%" stop-color="#E8410E" stop-opacity=".55"/>
      <stop offset="100%" stop-color="#E8410E" stop-opacity="0"/>
    </radialGradient>
    <radialGradient id="lamp" cx="50%" cy="50%" r="50%">
      <stop offset="0%" stop-color="#F5D9A8" stop-opacity=".9"/>
      <stop offset="100%" stop-color="#F5D9A8" stop-opacity="0"/>
    </radialGradient>
  </defs>
  <rect width="1536" height="1024" fill="#EDE6D5"/>
  
  <rect width="1536" height="1024" fill="#14110D" opacity=".08"/>
  <!-- window with rooftops + moon -->
  <rect x="960" y="120" width="440" height="420" rx="10" fill="#D8CDB4"/>
  <g>
    <circle cx="1290" cy="220" r="52" fill="#E8410E" opacity=".9"/>
    <path d="M960 470 l90 -70 60 40 80 -66 70 46 100 -70 40 26 v164 h-440 z" fill="#14110D" opacity=".85"/>
    <rect x="960" y="120" width="440" height="420" rx="10" fill="none" stroke="#14110D" stroke-width="10"/>
    <path d="M1180 120 V540" stroke="#14110D" stroke-width="8"/>
  </g>
  <!-- bookshelf -->
  <g fill="#14110D" opacity=".85">
    <rect x="120" y="140" width="360" height="330" rx="8" fill="#C9BFA8"/>
    <rect x="150" y="180" width="34" height="110"/><rect x="192" y="200" width="30" height="90" fill="#E8410E"/>
    <rect x="230" y="185" width="34" height="105"/><rect x="272" y="205" width="26" height="85"/>
    <rect x="150" y="330" width="30" height="110"/><rect x="188" y="345" width="34" height="95"/>
    <rect x="230" y="335" width="28" height="105" fill="#E8410E" opacity=".8"/><rect x="266" y="350" width="34" height="90"/>
    <path d="M120 300 h360 M120 140 h360" stroke="#14110D" stroke-width="10"/>
  </g>
  <!-- desk -->
  <path d="M80 760 L1456 760 L1536 1024 L0 1024 Z" fill="#14110D"/>
  <!-- lamp -->
  <circle cx="480" cy="620" r="190" fill="url(#lamp)"/>
  <g stroke="#14110D" stroke-width="12" fill="none">
    <path d="M560 760 L520 640 L440 600"/>
  </g>
  <path d="M400 570 a52 40 0 0 1 90 30 z" fill="#E8410E"/>
  <!-- open notebook with note symbols -->
  <g transform="rotate(-4 830 850)">
    <rect x="640" y="790" width="380" height="150" rx="10" fill="#EDE6D5"/>
    <path d="M830 790 V940" stroke="#C9BFA8" stroke-width="6"/>
    <g stroke="#14110D" stroke-width="6" fill="none">
      <path d="M680 830 h80 M680 860 l60 0 l-14 -12 m14 12 l-14 12"/>
      <path d="M700 900 q20 -24 40 0"/>
      <circle cx="920" cy="840" r="14"/>
      <path d="M900 880 l52 0 M900 906 l30 0"/>
    </g>
    <path d="M878 826 l14 14 M892 826 l-14 14" stroke="#E8410E" stroke-width="6"/>
  </g>
  <!-- pen + tea -->
  <path d="M1090 860 l90 -22" stroke="#14110D" stroke-width="12"/>
  <circle cx="1240" cy="880" r="34" fill="#C9BFA8"/><circle cx="1240" cy="880" r="24" fill="#D8CDB4"/>
  <rect width="1536" height="1024" fill="url(#gr)" opacity=".05"/>
  <text x="1518" y="1008" text-anchor="end" font-family="ui-monospace,Menlo,monospace" font-size="15" letter-spacing="3" fill="#14110D" opacity=".32">PREVIZ · 佔位圖</text>
</svg>